<svg xmlns="http://www.w3.org/2000/svg" width="23" height="25" viewBox="0 0 23 25"><g><g><path fill="#272a36" d="M9.11 16.046l.004.003.797.655c.267.22.575.38.903.473h1.345c.328-.093.637-.253.903-.473l5.19-4.267V1.104H4.612v11.243l4.394 3.613a.55.55 0 0 1 .106.086zm13.668-6.869c.13.105.205.264.205.431v14.83a.556.556 0 0 1-.424.54.535.535 0 0 1-.121.013H.537a.55.55 0 0 1-.546-.553V9.608a.56.56 0 0 1 .203-.43L3.52 6.442V.55a.55.55 0 0 1 .546-.555h14.733c.3 0 .545.249.545.555v5.802zm-.887 1.696l-2.545 2.092-.203.167-4.017 3.302 6.765 6.692zm-10.404 7.506a3.507 3.507 0 0 1-.881-.11l-.002-.001a3.528 3.528 0 0 1-1.38-.703l-.473-.39-6.781 6.708h19.124l-6.822-6.747-.522.429a3.554 3.554 0 0 1-1.38.703h-.004a3.495 3.495 0 0 1-.88.11zM1.083 10.873v12.341l6.813-6.74-4.174-3.431-.542-.447zm.26-1.214l2.177 1.79V7.87zm20.287 0l-2.286-1.88v3.76zM8.69 8.073l5.17-5.251a1.88 1.88 0 0 1 1.35-.568c.51 0 .99.201 1.351.568.362.367.56.854.56 1.371 0 .52-.198 1.007-.56 1.372l-5.17 5.252a.542.542 0 0 1-.182.122l-3.636 1.75a.533.533 0 0 1-.62-.108.562.562 0 0 1-.106-.63L8.583 8.23a.548.548 0 0 1 .106-.155h.002zm1.158.392l.861.875.296.3 4.784-4.858a.83.83 0 0 0 .24-.589c0-.22-.085-.43-.24-.587a.809.809 0 0 0-1.158 0zm-.611.949l-.75 1.61 1.585-.763-.091-.093z"/></g></g></svg>