<svg xmlns="http://www.w3.org/2000/svg" width="25" height="25" viewBox="0 0 25 25"><g><g><path fill="#272a36" d="M24.996 25.024H-.024V.004h25.02zM1.448 23.552h22.077V7.362H1.448zM23.525 1.475H1.448V5.89h22.077zM9.536 9.305h3.055v2.943H9.536zm4.366 0h3.055v2.943h-3.055zm4.366 0h3.053v2.943h-3.053zM9.536 13.72h3.055v2.943H9.536zm4.366 0h3.055v2.943h-3.055zm4.366 0h3.053v2.943h-3.053zm-8.732 4.415h3.055v2.945H9.536zm4.366 0h3.055v2.945h-3.055zm4.366 0h3.053v2.945h-3.053zM3.655 9.305H8.07v1.471H3.655zm0 2.943H8.07v1.472H3.655zm0 2.945H8.07v1.47H3.655zm0 2.942H8.07v1.474H3.655zM3.76 2.948h2.943v1.47H3.76zm5.887 0h11.776v1.47H9.647z"/></g></g></svg>