<svg xmlns="http://www.w3.org/2000/svg" width="31" height="26" viewBox="0 0 31 26"><g><g><path fill="#272a36" d="M0 0h31v26H0zm.969 24.999H30.03v-24H.969zm25.295-19.01v5.236c0 1.075-.85 1.952-1.89 1.952H6.619c-1.044 0-1.892-.877-1.892-1.952V5.99c0-1.078.848-1.953 1.892-1.953h17.755c1.04 0 1.89.875 1.89 1.953zm-.969 0c0-.525-.414-.952-.921-.952H6.619c-.508 0-.923.428-.923.953v5.235c0 .525.415.952.923.952h17.755c.507 0 .921-.427.921-.952zm-9.8 8.28l3.157 3.26-.686.708-1.986-2.053v5.779h-.968v-5.78l-1.989 2.054-.685-.708zM8.39 6.668H22.6v1H8.39zm0 2.763H22.6v1H8.39z"/></g></g></svg>