<svg xmlns="http://www.w3.org/2000/svg" width="25" height="25" viewBox="0 0 25 25"><g><g><path fill="#272a36" d="M24.47 24.989H.494a.51.51 0 0 1-.51-.51V.504a.51.51 0 0 1 .51-.51H24.47a.51.51 0 0 1 .51.51v23.975a.51.51 0 0 1-.51.51zm-23.465-1.02H23.96V5.095H1.005zM23.96 4.075v-1.02h-8.161a.51.51 0 1 1 0-1.02h8.16v-1.02H6.106v3.06zM1.005 1.015v3.06h4.08v-3.06zm21.934 12.75H2.026a.51.51 0 0 1-.51-.508V6.115a.51.51 0 0 1 .51-.51h20.913a.51.51 0 0 1 .512.51v7.142a.51.51 0 0 1-.512.509zM2.536 12.748H22.43V6.625H2.536zm9.181 5.61H2.026a.51.51 0 0 1-.51-.508v-3.062a.51.51 0 0 1 .51-.51h9.691a.51.51 0 0 1 .51.51v3.062a.51.51 0 0 1-.51.508zm-9.181-1.02h8.671v-2.04H2.536zm9.181 5.611H2.026a.51.51 0 0 1-.51-.508v-3.062a.51.51 0 0 1 .51-.51h9.691c.282 0 .51.229.51.51v3.062c0 .28-.228.508-.51.508zm-9.181-1.02h8.671v-2.04H2.536zm15.303-5.612h-4.59a.51.51 0 1 1 0-1.019h4.59a.51.51 0 1 1 0 1.02zm3.57 1.533h-8.16a.51.51 0 0 1 0-1.021h8.16a.51.51 0 1 1 0 1.021zm-2.55 3.06h-5.61a.51.51 0 0 1 0-1.021h5.61a.51.51 0 1 1 0 1.021zm1.53 1.53h-7.14a.511.511 0 0 1 0-1.02h7.14a.51.51 0 0 1 0 1.02zm-9.385-10.713a.51.51 0 0 1-.51-.51v-3.06a.509.509 0 0 1 .737-.457l3.061 1.53a.513.513 0 0 1 0 .913l-3.061 1.53a.506.506 0 0 1-.227.054zm.51-2.746v1.41l1.41-.704zM7.125 2.034h1.02v1.02h-1.02zm1.53 0h1.02v1.02h-1.02zm1.531 0h1.02v1.02h-1.02zm1.53 0h1.021v1.02h-1.021zm1.531 0h1.02v1.02h-1.02z"/></g></g></svg>