<svg xmlns="http://www.w3.org/2000/svg" width="26" height="26" viewBox="0 0 26 26"><g><g><path fill="#000" d="M1.518 10.644v.057H-.011V.003h26.02v10.698h-1.53v-.057zm0-1.528h22.96V1.531h-1.53v.013h-1.53V1.53h-1.532v.013h-1.53V1.53h-1.53v.013h-1.53V1.53h-1.531v.013h-1.53V1.53h-1.533v.013h-1.53V1.53h-1.53v.013H6.11V1.53H4.58v.013H3.05V1.53H1.518zM3.815 3.06h3.06v1.528h-3.06zm5 0h3.06v1.528h-3.06zm5 0h5.061v1.528h-5.06zm6 0h3.06v1.528h-3.06zm3.37 4.53h-3.061v-1.53h3.06zm-5 0h-3.06v-1.53h3.06zm-5 0H8.123v-1.53h5.06zm-6 0H4.124v-1.53h3.06zm17.294 16.866h1.53v1.528h-1.53zm-1.53 1.528h-1.53v-1.528h1.53zm-3.063 0h-1.53v-1.528h1.53zm-3.06 0h-1.53v-1.528h1.53zm-3.061 0h-1.53v-1.528h1.53zm-3.063 0h-1.53v-1.528h1.53zm-3.06 0H6.11v-1.528h1.532zm-3.062 0H3.05v-1.528h1.53zm-4.59-1.528h1.528v1.528H-.011zm1.528-1.527H-.011V21.4h1.529zm0-3.058H-.011v-1.528h1.529zm0-3.056H-.011v-1.527h1.529zm0-3.056H-.011v-1.53h1.529zm24.491 9.17h-1.53V21.4h1.53zm0-3.058h-1.53v-1.528h1.53zm0-3.056h-1.53v-1.527h1.53zm0-3.056h-1.53v-1.53h1.53z"/></g></g></svg>