<svg xmlns="http://www.w3.org/2000/svg" width="27" height="25" viewBox="0 0 27 25"><g><g><path fill="#272a36" d="M7.989 23.898l3.062.29-3.032.61c-.82.151-1.627.256-2.4.183a5.538 5.538 0 0 1-2.351-.746c-.726-.432-1.379-1.066-1.928-1.917-1.028-1.592-1.485-3.302-1.336-5.01.092-1.067.418-2.127.967-3.153.83-1.55 2.024-2.97 3.326-4.097 3.656-3.16 7.86-5.355 12.076-7.444 1.396-.69 5.222-2.607 5.222-2.607-.259.3-.51.66-.788 1.014-.28.355-.59.705-.99.97-1.79 1.177-3.684 2.12-5.439 3.239-3.183 2.033-6.382 4.036-9.431 6.24-.985.712-1.79 1.565-2.377 2.558-.588.994-.96 2.13-1.073 3.424l-.008.097c-.132 1.765.312 3.252 1.18 4.344.868 1.09 2.172 1.795 3.828 1.953.09.008.18.004.272.01.152.008.306-.004.456.011.258.023.516.008.764.031zm14.771-2.632c-.58.544-2.123.988-2.123.988 2.873-2.322 4.395-5.373 5.245-8.96a8.73 8.73 0 0 0 .239-2.014c.002-2.763-1.367-5.132-2.844-7.556-.15.299-.906 1.453-.906 1.425-2.22 1.047-4.493 2.11-6.757 3.192-2.335 1.113-4.66 2.247-6.99 3.371l.031.135 3.687-.18.139.38c-.76.644-1.562.945-2.373.944-.487 0-1.87-.438-2.031-.438-.297.001-1.37.852-1.59 1.089l.775 3.203c1.186 4.839 5.888 6.039 7.741 6.437 4.217-.558 6.32-6.759 6.572-8.025.197-.982.279-2.005.355-3.046a1.641 1.641 0 0 1-.6.637 2.095 2.095 0 0 1-1.088.285c-.751-.002-1.624-.275-2.58-.88l-1.26-.76h5.585c.018-.314.626-4.86.626-4.86s.604 4.692.604 5.778c.003 1.048-1.227 10.817-8.124 12.4-1.057-.002-2.05-.312-2.991-.762-.941-.45-1.836-1.035-2.703-1.609a6.49 6.49 0 0 1-2.144-2.296c-.508-.926-.791-2.002-.804-3.187l-.038-3.235c-.941 1.042-1.458 2.217-1.458 3.357 0 .52.105 1.038.327 1.539.378.857 1.081 1.595 1.54 2.242l.326.465-.539-.128c-.7-.169-1.327-.746-1.787-1.512a5.362 5.362 0 0 1-.754-2.713 5.787 5.787 0 0 1 .991-3.177c.514-.771 1.187-1.42 1.937-2.011 2.97-2.342 6.41-3.633 9.763-5.057 1.36-.577 2.723-1.132 4.035-1.785.572-.286 1.095-.622 1.483-1.036.388-.416.644-.899.705-1.51l.06-.606.318.509c.733 1.178 1.53 2.447 2.317 3.723.967 1.57 3.518 8.609-2.917 15.244z"/></g></g></svg>