<svg xmlns="http://www.w3.org/2000/svg" width="25" height="25" viewBox="0 0 25 25"><g><g><path fill="#272a36" d="M16.095 13.017h4.8a2.076 2.076 0 0 0 2.01 1.563c1.142 0 2.08-.933 2.08-2.084a2.09 2.09 0 0 0-2.08-2.086c-.97 0-1.778.67-2.01 1.565h-4.8a3.627 3.627 0 0 0-.683-1.66l5.534-5.548a2.58 2.58 0 0 0 1.436.437 2.612 2.612 0 0 0 2.602-2.606 2.609 2.609 0 0 0-2.602-2.606 2.606 2.606 0 0 0-2.602 2.606c0 .528.162 1.019.433 1.43L14.675 9.58a3.612 3.612 0 0 0-4.36 0L4.78 4.03c.273-.412.433-.904.433-1.433A2.608 2.608 0 0 0 2.611-.008a2.605 2.605 0 0 0 0 5.212c.529 0 1.02-.162 1.432-.436l5.535 5.546a3.561 3.561 0 0 0-.687 1.661H4.098A2.084 2.084 0 0 0 2.09 10.41a2.086 2.086 0 0 0 0 4.17 2.08 2.08 0 0 0 2.007-1.563H8.89c.085.607.32 1.174.688 1.66l-5.54 5.551a2.586 2.586 0 0 0-1.428-.431 2.605 2.605 0 0 0-2.602 2.605 2.609 2.609 0 0 0 2.602 2.607 2.612 2.612 0 0 0 2.601-2.607c0-.533-.16-1.026-.435-1.44l5.54-5.55a3.611 3.611 0 0 0 4.353.003l5.546 5.55a2.591 2.591 0 0 0-.436 1.437 2.61 2.61 0 0 0 2.602 2.607 2.612 2.612 0 0 0 2.602-2.607 2.608 2.608 0 0 0-2.602-2.605c-.528 0-1.02.16-1.43.433l-5.545-5.551c.367-.485.6-1.053.688-1.662z"/></g></g></svg>