<svg xmlns="http://www.w3.org/2000/svg" width="22" height="25" viewBox="0 0 22 25"><g><g><path fill="#272a36" d="M17.17 11.127c0 3.448-2.773 6.263-6.17 6.263-3.394 0-6.166-2.79-6.166-6.237 0-3.445 2.772-6.262 6.166-6.262 3.397 0 6.17 2.817 6.17 6.236zm-2.695 0c0-1.946-1.556-3.526-3.475-3.526-1.917 0-3.471 1.58-3.471 3.526 0 1.947 1.554 3.526 3.471 3.526 1.919 0 3.475-1.579 3.475-3.526zm-3.992-8.656h1.037V3.6h-1.037zm6.764 17.84l1.581 4.71H3.148l1.582-4.71a11.208 11.208 0 0 1-4.717-9.158C.013 4.997 4.938-.002 11-.002c6.067 0 10.99 4.999 10.99 11.155 0 3.763-1.865 7.13-4.743 9.157zm-.958-.606a10.126 10.126 0 0 0 4.665-8.552C20.954 5.576 16.497 1.05 11 1.05c-5.492 0-9.95 4.526-9.846 10.077 0 3.605 1.866 6.761 4.665 8.55.155.08.285.185.44.265.051.026.078.026.103.052.182.106.364.21.545.291l.156.078c.156.078.31.16.492.211.026 0 .051.025.078.025.181.08.389.16.595.211.053 0 .079.026.13.026.155.053.337.08.519.133.025 0 .076.024.104.024.207.029.414.08.622.108.025.025.076.025.102.025.182.027.363.027.544.052h.156c.208.027.416.027.648.027.234 0 .442 0 .648-.027h.155c.181 0 .364-.025.546-.052.024-.025.077-.025.103-.025.207-.028.414-.055.622-.108.024 0 .077-.024.105-.024.18-.028.336-.08.517-.133.05 0 .078 0 .129-.026.208-.078.387-.131.597-.21.025 0 .052-.026.077-.026.155-.08.337-.133.492-.211.053-.027.103-.053.156-.078.18-.081.363-.158.544-.265a.202.202 0 0 0 .105-.052c.155-.078.283-.183.44-.263z"/></g></g></svg>