<svg xmlns="http://www.w3.org/2000/svg" width="26" height="26" viewBox="0 0 26 26"><g><g><path fill="#272a36" d="M26.01 7.645H-.01V.003h26.02zM1.517 6.115h22.96V1.532H1.518zm22.96 18.34h1.531v1.528h-1.53zm-1.53 1.528h-1.53v-1.528h1.53zm-3.062 0h-1.53v-1.528h1.53zm-3.061 0h-1.53v-1.528h1.53zm-3.06 0h-1.531v-1.528h1.53zm-3.062 0h-1.53v-1.528h1.53zm-3.061 0H6.11v-1.528h1.532zm-3.062 0H3.05v-1.528h1.53zm-4.59-1.528h1.528v1.528H-.01zm1.528-1.527H-.01V21.4h1.528zm0-3.058H-.01v-1.528h1.528zm0-3.056H-.01v-1.527h1.528zm0-3.056H-.01v-1.53h1.528zm0-3.057H-.01V9.173h1.528zM26.01 22.928h-1.53V21.4h1.53zm0-3.058h-1.53v-1.528h1.53zm0-3.056h-1.53v-1.527h1.53zm0-3.056h-1.53v-1.53h1.53zm0-3.057h-1.53V9.173h1.53zM3.815 3.059h3.06v1.528h-3.06zm6.122 0h12.245v1.528H9.937z"/></g></g></svg>