<svg xmlns="http://www.w3.org/2000/svg" width="28" height="25" viewBox="0 0 28 25"><g><g><path fill="#272a36" d="M0 0h28v25H0zm.936 24.038h26.128V.962H.936zm16.58-9.09h7.567v.99h-7.566zm0 2.312h4.022v.99h-4.021zm0-10.51h7.567v.99h-7.566zm0 2.091h7.567v.99h-7.566zm0 2.31h7.567v.992h-7.566zM14.153 6.75v11.5H2.916V6.75zm-5.617 6.702c.926 0 1.68-.746 1.68-1.663 0-.916-.754-1.661-1.68-1.661-.927 0-1.68.745-1.68 1.66 0 .918.753 1.664 1.68 1.664zm-.002 1.72c-1.728 0-3.172.9-3.497 2.088h6.996c-.326-1.19-1.77-2.088-3.499-2.088zm4.618-7.431H3.917v9.519h.1c.27-1.488 1.704-2.684 3.557-2.997a2.655 2.655 0 0 1-1.721-2.473c0-1.462 1.202-2.652 2.682-2.652 1.478 0 2.681 1.19 2.681 2.652 0 1.126-.716 2.09-1.72 2.474 1.852.312 3.285 1.508 3.556 2.996h.1z"/></g></g></svg>