<svg xmlns="http://www.w3.org/2000/svg" width="25" height="25" viewBox="0 0 25 25"><g><g><path fill="#272a36" d="M24.997 16.193H-.024V2.99h25.02zm-23.55-1.472h22.077V4.462H1.447zm22.077 8.83h1.473v1.472h-1.473zm-1.472 1.472h-1.47v-1.471h1.47zm-2.944 0h-1.471v-1.471h1.471zm-2.943 0h-1.471v-1.471h1.471zm-2.944 0H11.75v-1.471h1.471zm-2.944 0h-1.47v-1.471h1.47zm-2.943 0h-1.47v-1.471h1.47zm-2.943 0H2.919v-1.471H4.39zm-4.415-1.471h1.47v1.47h-1.47zm1.47-1.471h-1.47v-1.473h1.47zm0-2.945h-1.47v-1.472h1.47zM-.023.002h1.47v1.472h-1.47zm22.076 1.472h-1.47V.002h1.47zm-2.944 0h-1.471V.002h1.471zm-2.943 0h-1.471V.002h1.471zm-2.944 0H11.75V.002h1.471zm-2.944 0h-1.47V.002h1.47zm-2.943 0h-1.47V.002h1.47zm-2.943 0H2.919V.002H4.39zM23.524.002h1.473v1.472h-1.473zm1.473 22.079h-1.473v-1.473h1.473zm0-2.945h-1.473v-1.472h1.473zM5.159 12.312L2.51 9.592 5.16 6.87l1.054 1.026-1.65 1.695 1.65 1.694zm14.699 0l-1.055-1.026 1.65-1.694-1.65-1.695 1.055-1.026 2.648 2.72z"/></g></g></svg>