<svg xmlns="http://www.w3.org/2000/svg" width="27" height="25" viewBox="0 0 27 25"><g><g><path fill="#272a36" d="M27.001 8.088V24.29a.73.73 0 0 1-.723.738H.698a.731.731 0 0 1-.722-.738V8.088c0-.252.127-.486.338-.62v-.002l.01-.007.003-.003 4.002-2.564V.722a.73.73 0 0 1 .725-.736h16.87c.4 0 .725.33.723.738v4.168l4.004 2.564.002.002.001.001.01.007-.001.002a.733.733 0 0 1 .338.62zm-4.354-1.454v2.56l2.18-1.163zM5.78 1.459v8.51l7.708 4.653 7.707-4.652V1.46zM4.329 6.634L2.15 8.03l2.18 1.164zm21.222 2.674l-11.725 6.797a.71.71 0 0 1-.675 0L1.425 9.308v14.246h24.126zM7.683 5.143c0-.408.325-.737.726-.737H18.57c.4 0 .723.33.723.737a.73.73 0 0 1-.723.736H8.409a.73.73 0 0 1-.726-.736zm0 2.945a.73.73 0 0 1 .726-.736H18.57c.4 0 .723.329.723.736a.732.732 0 0 1-.723.737H8.409a.732.732 0 0 1-.726-.737z"/></g></g></svg>