<svg xmlns="http://www.w3.org/2000/svg" width="25" height="25" viewBox="0 0 25 25"><g><g><path fill="#272a36" d="M20.412 12.472L15.755 7.71l-3.819 1.924-3.7-4.113-4.337 6.831-1.242-.788 5.375-8.468 4.248 4.718 3.776-1.903 5.41 5.532zm.6-5.956a2.047 2.047 0 1 1 0-4.093 2.047 2.047 0 0 1 0 4.093z"/></g><g><path fill="#272a36" d="M25.002 25.023H-.018V.003h25.02zM1.454 23.552H23.53v-8.094H1.454zm7.134-6.16h4.779v1.472h-4.78zm0 2.811h7.449v1.473h-7.45zm6.15-2.81h2.597v1.47h-2.596zm-11.107 0h3.483v4.283H3.631zM1 14h23V1H1z"/></g></g></svg>