<svg xmlns="http://www.w3.org/2000/svg" width="30" height="25" viewBox="0 0 30 25"><g><g><path fill="#272a36" d="M3.272 8.14c0-1.86 1.468-3.366 3.281-3.366 1.812 0 3.281 1.507 3.281 3.365 0 1.86-1.469 3.365-3.28 3.365-1.814 0-3.282-1.506-3.282-3.365zm2.618 0L4.788 9.267l.663.68 1.101-1.13 1.101 1.13.664-.68L7.216 8.14l1.1-1.13-.663-.68-1.1 1.13L5.45 6.33l-.663.68zm5.82 0c0-1.86 1.468-3.366 3.28-3.366 1.812 0 3.282 1.507 3.282 3.365 0 1.86-1.47 3.365-3.281 3.365-1.813 0-3.282-1.506-3.282-3.365zm2.627 0l-1.101 1.128.663.68 1.1-1.13 1.103 1.13.663-.68-1.102-1.129 1.102-1.13-.663-.68L15 7.46l-1.1-1.13-.663.68zm5.809 0c0-1.86 1.469-3.366 3.282-3.366 1.811 0 3.281 1.507 3.281 3.365 0 1.86-1.47 3.365-3.281 3.365-1.813 0-3.282-1.506-3.282-3.365zm2.64 0l-1.103 1.128.663.68 1.103-1.13 1.1 1.13.663-.68-1.1-1.129 1.1-1.13-.663-.68-1.1 1.13-1.103-1.13-.663.68zM30 0v25H0V0zm-.938.961H.937V24.04h28.125zM3.272 17.273h6.562v.962H3.272zm.938 1.923h4.687v.962H4.21zm7.5-1.923h6.562v.962H11.71zm.938 1.923h4.687v.962h-4.687zm7.498-1.923h6.563v.962h-6.563zm.939 1.923h4.687v.962h-4.687zm-14.532-6.73a.95.95 0 0 1 .938.962.95.95 0 0 1-.938.961.95.95 0 0 1-.937-.961c0-.531.42-.962.937-.962zm8.438 0a.95.95 0 0 1 .937.962.95.95 0 0 1-.937.961.95.95 0 0 1-.939-.961c0-.531.42-.962.939-.962zm8.437 0c.518 0 .937.431.937.962a.948.948 0 0 1-.937.961.95.95 0 0 1-.937-.961c0-.531.42-.962.937-.962z"/></g></g></svg>