<svg xmlns="http://www.w3.org/2000/svg" width="40" height="40" viewBox="0 0 40 40"><g><g><path d="M18.571 2.386v13.8a2.388 2.388 0 0 1-2.385 2.385h-13.8A2.388 2.388 0 0 1 0 16.186v-13.8A2.388 2.388 0 0 1 2.386 0h13.8a2.388 2.388 0 0 1 2.385 2.386zm-1.428 0a.958.958 0 0 0-.957-.957h-13.8a.958.958 0 0 0-.958.957v13.8c0 .527.43.957.958.957h13.8c.528 0 .957-.43.957-.957zm22.857 0v13.8a2.388 2.388 0 0 1-2.386 2.385h-13.8a2.388 2.388 0 0 1-2.385-2.385v-13.8A2.388 2.388 0 0 1 23.814 0h13.8A2.388 2.388 0 0 1 40 2.386zm-1.429 0a.958.958 0 0 0-.957-.957h-13.8a.958.958 0 0 0-.957.957v13.8c0 .527.43.957.957.957h13.8c.528 0 .957-.43.957-.957zm-20 21.429v13.8A2.388 2.388 0 0 1 16.186 40h-13.8A2.388 2.388 0 0 1 0 37.614v-13.8a2.388 2.388 0 0 1 2.386-2.386h13.8a2.388 2.388 0 0 1 2.385 2.387zm-1.428 0a.958.958 0 0 0-.957-.958h-13.8a.958.958 0 0 0-.958.958v13.8c0 .527.43.957.958.957h13.8c.528 0 .957-.43.957-.958z"/></g><g><path fill="#00a0ff" d="M39.286 30h-7.858v-7.857a.714.714 0 1 0-1.428 0V30h-7.857a.713.713 0 1 0 0 1.428H30v7.858a.714.714 0 1 0 1.428 0v-7.858h7.858a.714.714 0 1 0 0-1.428z"/></g></g></svg>