<svg xmlns="http://www.w3.org/2000/svg" width="20" height="20" viewBox="0 0 20 20"><g><g><path fill="#272a36" d="M19.826 17.34c.229.23.229.6 0 .83l-1.658 1.656a.584.584 0 0 1-.827 0l-5.974-5.973A4.1 4.1 0 0 1 7.1 12.9a4.103 4.103 0 0 1-.792-4.657.59.59 0 0 1 .946-.162l1.331 1.334h.829v-.829L8.08 7.252a.587.587 0 0 1 .162-.944A4.104 4.104 0 0 1 12.9 7.1a4.1 4.1 0 0 1 .954 4.266zM20 8.829v2.344a.586.586 0 0 1-.324.524l-1.192.577a8.746 8.746 0 0 1-.56 1.508l-1.811-1.811c.72-2.252.18-4.792-1.556-6.528a6.452 6.452 0 0 0-9.115 0 6.452 6.452 0 0 0 0 9.116 6.452 6.452 0 0 0 4.568 1.884c.664 0 1.328-.11 1.97-.318l1.801 1.8c-.484.233-.988.421-1.51.56l-.576 1.193a.586.586 0 0 1-.523.323H8.828a.587.587 0 0 1-.524-.323l-.576-1.192a8.787 8.787 0 0 1-2.119-.88l-1.225.41a.586.586 0 0 1-.6-.143l-1.656-1.657a.588.588 0 0 1-.142-.6l.408-1.225a8.74 8.74 0 0 1-.878-2.117l-1.193-.577a.587.587 0 0 1-.324-.524V8.828c0-.222.126-.424.324-.524l1.193-.575a8.73 8.73 0 0 1 .878-2.118l-.408-1.225a.587.587 0 0 1 .142-.6l1.657-1.658a.59.59 0 0 1 .6-.141l1.224.408a8.77 8.77 0 0 1 2.119-.879L8.304.324A.586.586 0 0 1 8.828 0h2.344c.222 0 .424.126.523.324l.576 1.192c.741.198 1.451.493 2.119.88l1.224-.409a.59.59 0 0 1 .6.14l1.657 1.658a.586.586 0 0 1 .143.6l-.409 1.226c.386.667.68 1.377.88 2.118l1.191.575c.199.1.324.302.324.524z"/></g></g></svg>