<?xml version="1.0" encoding="utf-8"?>
<!-- Generator: Adobe Illustrator 16.0.4, SVG Export Plug-In . SVG Version: 6.00 Build 0)  -->
<!DOCTYPE svg PUBLIC "-//W3C//DTD SVG 1.1//EN" "http://www.w3.org/Graphics/SVG/1.1/DTD/svg11.dtd">
<svg version="1.1" id="Layer_1" xmlns="http://www.w3.org/2000/svg" xmlns:xlink="http://www.w3.org/1999/xlink" x="0px" y="0px"
	 width="913px" height="747px" viewBox="0 0 913 747" enable-background="new 0 0 913 747" xml:space="preserve">
<circle fill="#019EFE" cx="460.235" cy="448.2" r="298.8"/>
<path fill="#CCE0ED" d="M456.5,0L456.5,0C209.99,0,8.3,201.69,8.3,448.2l0,0h896.4l0,0C904.7,201.69,703.01,0,456.5,0z"/>
<circle fill="#0074DD" stroke="#FFFFFF" stroke-miterlimit="10" cx="456.5" cy="440.73" r="123.255"/>
<g>
	<path fill="#019EFE" d="M684.335,194.22"/>
	<path fill="#019EFE" d="M456.5,414.585"/>
</g>
<g>
	<path fill="#0074DD" d="M422.885,478.08c-7.47,0-14.939-3.735-18.675-7.47c-11.205-11.205-7.47-26.146,3.735-37.351l261.449-224.1
		c11.205-11.205,26.146-7.47,37.351,3.735s7.47,26.145-3.735,37.35l-261.45,224.1C437.825,474.345,430.355,478.08,422.885,478.08z"
		/>
</g>
</svg>
