<svg xmlns="http://www.w3.org/2000/svg" width="14" height="14" viewBox="0 0 14 14"><g><g><path fill="#fff" d="M14 7a6.965 6.965 0 0 1-2.051 4.949A6.95 6.95 0 0 1 6.999 14a6.965 6.965 0 0 1-4.947-2.051A6.949 6.949 0 0 1 0 6.999c0-1.867.731-3.625 2.052-4.947A6.946 6.946 0 0 1 7 0c1.868 0 3.628.728 4.949 2.052A6.948 6.948 0 0 1 14 7zm-2.348-4.351a6.953 6.953 0 0 1-1.443.994c.265.923.417 1.963.443 3.043h2.714a6.36 6.36 0 0 0-1.714-4.037zm-4.338 6.96a7.062 7.062 0 0 1 2.314.502c.238-.851.375-1.803.398-2.797H7.314zM8.723.866c.34.337.648.777.92 1.314.137.269.26.554.368.857a6.364 6.364 0 0 0 1.189-.825A6.346 6.346 0 0 0 8.723.866zM7.314 3.783c.74-.037 1.457-.2 2.129-.477a7.115 7.115 0 0 0-.36-.849C8.586 1.474 7.969.871 7.314.726zm0 .631V6.69h2.709a11.496 11.496 0 0 0-.392-2.78 7.066 7.066 0 0 1-2.317.505zm-.631 2.272V4.409a6.938 6.938 0 0 1-2.317-.503 11.496 11.496 0 0 0-.392 2.78zM4.92 2.457a7.117 7.117 0 0 0-.36.849c.668.277 1.388.44 2.128.477V.726c-.654.145-1.27.748-1.768 1.731zm-2.117-.245c.368.322.766.596 1.188.825.112-.303.235-.588.369-.857.271-.534.58-.977.92-1.314a6.346 6.346 0 0 0-2.477 1.346zM.637 6.686h2.714c.023-1.08.178-2.117.443-3.043-.517-.269-1-.6-1.442-.994A6.358 6.358 0 0 0 .637 6.686zm1.726 4.677c.44-.395.923-.723 1.437-.989a12.147 12.147 0 0 1-.449-3.06H.637a6.345 6.345 0 0 0 1.726 4.049zm2.917 1.774c-.34-.34-.649-.78-.92-1.317a7.735 7.735 0 0 1-.363-.84c-.42.226-.817.5-1.183.82a6.381 6.381 0 0 0 2.466 1.337zm1.408.137v-3.037a6.3 6.3 0 0 0-2.122.475c.105.294.223.57.354.83.497.984 1.114 1.586 1.768 1.732zm-2.314-3.163a6.921 6.921 0 0 1 2.314-.502V7.314h-2.71c.022.995.159 1.946.396 2.797zm2.943 3.163c.655-.146 1.272-.748 1.769-1.731a7.31 7.31 0 0 0 .354-.831 6.368 6.368 0 0 0-2.123-.475zm3.875-1.477a6.388 6.388 0 0 0-1.183-.82 7.803 7.803 0 0 1-.363.84c-.272.537-.58.98-.92 1.317a6.307 6.307 0 0 0 2.466-1.337zm.454-.434a6.376 6.376 0 0 0 1.726-4.049h-2.715a12.15 12.15 0 0 1-.448 3.06c.514.266.997.597 1.437.989z"/></g></g></svg>