<svg xmlns="http://www.w3.org/2000/svg" width="105" height="35" viewBox="0 0 105 35"><defs><mask id="v58yb" width="2" height="2" x="-1" y="-1"><path fill="#fff" d="M2 0h101v29H2z"/><path d="M11.192 14.763c.859-1.388 4.765-4.847 9.955.443 3.766 3.839 9.378.394 10.199-.03.82-.424 4.621-2.81 8.11.463 3.536 3.318 6.842-1.94 7.55-7.445.502-3.907.792-6.794 2.588-7.765 1.11-.6 3.162-1.277 7.07 8.324 3.907 9.6 6.923 18.07 10.503 14.566 2.848-2.787 2.523-7.823 6.016-10.434 2.92-2.184 4.937 10.43 9.617 7.315 2.578-1.716 2.284-8.247 5.658-10.259 2.587-1.543 4.69 1.457 6.85 3.689 1.673 1.729 2.959 5.348 5.604 3.464.104-.378.315-.638.56-.638.345 0 .626.522.626 1.165 0 .414-.116.777-.291.984a.598.598 0 0 1-.147.328c-3.102 3.058-4.535-.75-6.296-2.568-2.16-2.233-3.99-5.772-6.567-4.167-2.552 1.59-2.835 8.343-5.425 9.997-5.226 3.336-7.75-7.55-9.866-7.131-2.116.42-2.381 7.153-6 10.512-3.62 3.359-7.318-4.213-11.226-13.814-3.907-9.6-4.889-9.577-6.347-9.077-.978.336-1.559 3.953-2.082 7.85-.658 4.896-4.867 10.834-8.089 7.655-3.509-3.464-7.248-1.367-8.069-.943-.82.424-6.865 4.027-10.307.648-5.234-5.139-8.549-2.879-9.78-.752-.697 1.204-6.802 8.68-8.321 10.534a.752.752 0 0 1-.251.307l-.09.109-.013-.062a.34.34 0 0 1-.096.014c-.337 0-.61-.508-.61-1.135 0-.418.12-.783.302-.98.641-.805 7.881-9.9 8.665-11.167z"/></mask><filter id="v58ya" width="131" height="64" x="-13" y="-15" filterUnits="userSpaceOnUse"><feOffset dy="5" in="SourceGraphic" result="FeOffset1106Out"/><feGaussianBlur in="FeOffset1106Out" result="FeGaussianBlur1107Out" stdDeviation="2 2"/></filter><linearGradient id="v58yc" x1="102.22" x2="2.22" y1="17.13" y2="11.09" gradientUnits="userSpaceOnUse"><stop offset="0" stop-color="#ffc875"/><stop offset=".41" stop-color="#f3595b"/><stop offset=".66" stop-color="#d9a783"/><stop offset="1" stop-color="#83d7c0"/></linearGradient><linearGradient id="v58yd" x1="102.22" x2="2.22" y1="17.13" y2="11.09" gradientUnits="userSpaceOnUse"><stop offset="0" stop-color="#00a0ff"/><stop offset="1"/></linearGradient></defs><g><g><g filter="url(#v58ya)"><path fill="none" d="M11.192 14.763c.859-1.388 4.765-4.847 9.955.443 3.766 3.839 9.378.394 10.199-.03.82-.424 4.621-2.81 8.11.463 3.536 3.318 6.842-1.94 7.55-7.445.502-3.907.792-6.794 2.588-7.765 1.11-.6 3.162-1.277 7.07 8.324 3.907 9.6 6.923 18.07 10.503 14.566 2.848-2.787 2.523-7.823 6.016-10.434 2.92-2.184 4.937 10.43 9.617 7.315 2.578-1.716 2.284-8.247 5.658-10.259 2.587-1.543 4.69 1.457 6.85 3.689 1.673 1.729 2.959 5.348 5.604 3.464.104-.378.315-.638.56-.638.345 0 .626.522.626 1.165 0 .414-.116.777-.291.984a.598.598 0 0 1-.147.328c-3.102 3.058-4.535-.75-6.296-2.568-2.16-2.233-3.99-5.772-6.567-4.167-2.552 1.59-2.835 8.343-5.425 9.997-5.226 3.336-7.75-7.55-9.866-7.131-2.116.42-2.381 7.153-6 10.512-3.62 3.359-7.318-4.213-11.226-13.814-3.907-9.6-4.889-9.577-6.347-9.077-.978.336-1.559 3.953-2.082 7.85-.658 4.896-4.867 10.834-8.089 7.655-3.509-3.464-7.248-1.367-8.069-.943-.82.424-6.865 4.027-10.307.648-5.234-5.139-8.549-2.879-9.78-.752-.697 1.204-6.802 8.68-8.321 10.534a.752.752 0 0 1-.251.307l-.09.109-.013-.062a.34.34 0 0 1-.096.014c-.337 0-.61-.508-.61-1.135 0-.418.12-.783.302-.98.641-.805 7.881-9.9 8.665-11.167z" mask="url(&quot;#v58yb&quot;)"/><path fill-opacity=".05" d="M11.192 14.763c.859-1.388 4.765-4.847 9.955.443 3.766 3.839 9.378.394 10.199-.03.82-.424 4.621-2.81 8.11.463 3.536 3.318 6.842-1.94 7.55-7.445.502-3.907.792-6.794 2.588-7.765 1.11-.6 3.162-1.277 7.07 8.324 3.907 9.6 6.923 18.07 10.503 14.566 2.848-2.787 2.523-7.823 6.016-10.434 2.92-2.184 4.937 10.43 9.617 7.315 2.578-1.716 2.284-8.247 5.658-10.259 2.587-1.543 4.69 1.457 6.85 3.689 1.673 1.729 2.959 5.348 5.604 3.464.104-.378.315-.638.56-.638.345 0 .626.522.626 1.165 0 .414-.116.777-.291.984a.598.598 0 0 1-.147.328c-3.102 3.058-4.535-.75-6.296-2.568-2.16-2.233-3.99-5.772-6.567-4.167-2.552 1.59-2.835 8.343-5.425 9.997-5.226 3.336-7.75-7.55-9.866-7.131-2.116.42-2.381 7.153-6 10.512-3.62 3.359-7.318-4.213-11.226-13.814-3.907-9.6-4.889-9.577-6.347-9.077-.978.336-1.559 3.953-2.082 7.85-.658 4.896-4.867 10.834-8.089 7.655-3.509-3.464-7.248-1.367-8.069-.943-.82.424-6.865 4.027-10.307.648-5.234-5.139-8.549-2.879-9.78-.752-.697 1.204-6.802 8.68-8.321 10.534a.752.752 0 0 1-.251.307l-.09.109-.013-.062a.34.34 0 0 1-.096.014c-.337 0-.61-.508-.61-1.135 0-.418.12-.783.302-.98.641-.805 7.881-9.9 8.665-11.167z"/></g><path fill="#69c496" d="M11.192 14.763c.859-1.388 4.765-4.847 9.955.443 3.766 3.839 9.378.394 10.199-.03.82-.424 4.621-2.81 8.11.463 3.536 3.318 6.842-1.94 7.55-7.445.502-3.907.792-6.794 2.588-7.765 1.11-.6 3.162-1.277 7.07 8.324 3.907 9.6 6.923 18.07 10.503 14.566 2.848-2.787 2.523-7.823 6.016-10.434 2.92-2.184 4.937 10.43 9.617 7.315 2.578-1.716 2.284-8.247 5.658-10.259 2.587-1.543 4.69 1.457 6.85 3.689 1.673 1.729 2.959 5.348 5.604 3.464.104-.378.315-.638.56-.638.345 0 .626.522.626 1.165 0 .414-.116.777-.291.984a.598.598 0 0 1-.147.328c-3.102 3.058-4.535-.75-6.296-2.568-2.16-2.233-3.99-5.772-6.567-4.167-2.552 1.59-2.835 8.343-5.425 9.997-5.226 3.336-7.75-7.55-9.866-7.131-2.116.42-2.381 7.153-6 10.512-3.62 3.359-7.318-4.213-11.226-13.814-3.907-9.6-4.889-9.577-6.347-9.077-.978.336-1.559 3.953-2.082 7.85-.658 4.896-4.867 10.834-8.089 7.655-3.509-3.464-7.248-1.367-8.069-.943-.82.424-6.865 4.027-10.307.648-5.234-5.139-8.549-2.879-9.78-.752-.697 1.204-6.802 8.68-8.321 10.534a.752.752 0 0 1-.251.307l-.09.109-.013-.062a.34.34 0 0 1-.096.014c-.337 0-.61-.508-.61-1.135 0-.418.12-.783.302-.98.641-.805 7.881-9.9 8.665-11.167z"/><path fill="url(#v58yc)" d="M11.192 14.763c.859-1.388 4.765-4.847 9.955.443 3.766 3.839 9.378.394 10.199-.03.82-.424 4.621-2.81 8.11.463 3.536 3.318 6.842-1.94 7.55-7.445.502-3.907.792-6.794 2.588-7.765 1.11-.6 3.162-1.277 7.07 8.324 3.907 9.6 6.923 18.07 10.503 14.566 2.848-2.787 2.523-7.823 6.016-10.434 2.92-2.184 4.937 10.43 9.617 7.315 2.578-1.716 2.284-8.247 5.658-10.259 2.587-1.543 4.69 1.457 6.85 3.689 1.673 1.729 2.959 5.348 5.604 3.464.104-.378.315-.638.56-.638.345 0 .626.522.626 1.165 0 .414-.116.777-.291.984a.598.598 0 0 1-.147.328c-3.102 3.058-4.535-.75-6.296-2.568-2.16-2.233-3.99-5.772-6.567-4.167-2.552 1.59-2.835 8.343-5.425 9.997-5.226 3.336-7.75-7.55-9.866-7.131-2.116.42-2.381 7.153-6 10.512-3.62 3.359-7.318-4.213-11.226-13.814-3.907-9.6-4.889-9.577-6.347-9.077-.978.336-1.559 3.953-2.082 7.85-.658 4.896-4.867 10.834-8.089 7.655-3.509-3.464-7.248-1.367-8.069-.943-.82.424-6.865 4.027-10.307.648-5.234-5.139-8.549-2.879-9.78-.752-.697 1.204-6.802 8.68-8.321 10.534a.752.752 0 0 1-.251.307l-.09.109-.013-.062a.34.34 0 0 1-.096.014c-.337 0-.61-.508-.61-1.135 0-.418.12-.783.302-.98.641-.805 7.881-9.9 8.665-11.167z"/><path fill="url(#v58yd)" d="M11.192 14.763c.859-1.388 4.765-4.847 9.955.443 3.766 3.839 9.378.394 10.199-.03.82-.424 4.621-2.81 8.11.463 3.536 3.318 6.842-1.94 7.55-7.445.502-3.907.792-6.794 2.588-7.765 1.11-.6 3.162-1.277 7.07 8.324 3.907 9.6 6.923 18.07 10.503 14.566 2.848-2.787 2.523-7.823 6.016-10.434 2.92-2.184 4.937 10.43 9.617 7.315 2.578-1.716 2.284-8.247 5.658-10.259 2.587-1.543 4.69 1.457 6.85 3.689 1.673 1.729 2.959 5.348 5.604 3.464.104-.378.315-.638.56-.638.345 0 .626.522.626 1.165 0 .414-.116.777-.291.984a.598.598 0 0 1-.147.328c-3.102 3.058-4.535-.75-6.296-2.568-2.16-2.233-3.99-5.772-6.567-4.167-2.552 1.59-2.835 8.343-5.425 9.997-5.226 3.336-7.75-7.55-9.866-7.131-2.116.42-2.381 7.153-6 10.512-3.62 3.359-7.318-4.213-11.226-13.814-3.907-9.6-4.889-9.577-6.347-9.077-.978.336-1.559 3.953-2.082 7.85-.658 4.896-4.867 10.834-8.089 7.655-3.509-3.464-7.248-1.367-8.069-.943-.82.424-6.865 4.027-10.307.648-5.234-5.139-8.549-2.879-9.78-.752-.697 1.204-6.802 8.68-8.321 10.534a.752.752 0 0 1-.251.307l-.09.109-.013-.062a.34.34 0 0 1-.096.014c-.337 0-.61-.508-.61-1.135 0-.418.12-.783.302-.98.641-.805 7.881-9.9 8.665-11.167z"/></g></g></svg>