<svg xmlns="http://www.w3.org/2000/svg" width="24" height="24" viewBox="0 0 24 24"><g><g><path fill="#30302b" d="M24 12c0 6.617-5.384 12-12 12-6.617 0-12-5.383-12-12C0 5.384 5.383 0 12 0c6.616 0 12 5.384 12 12zm-1.574 0c0-5.75-4.677-10.426-10.426-10.426C6.251 1.574 1.574 6.251 1.574 12c0 5.749 4.677 10.427 10.426 10.427 5.749 0 10.426-4.678 10.426-10.427zm-6.598-2.69a3.834 3.834 0 0 1-3.04 3.746v2.036a.787.787 0 0 1-1.575 0v-2.74c0-.435.352-.788.787-.788a2.256 2.256 0 0 0 2.254-2.254A2.256 2.256 0 0 0 12 7.057 2.256 2.256 0 0 0 9.747 9.31a.787.787 0 0 1-1.575 0A3.832 3.832 0 0 1 12 5.483a3.832 3.832 0 0 1 3.828 3.827zm-2.84 8.102a.988.988 0 1 1-1.976 0 .988.988 0 0 1 1.976 0z"/></g></g></svg>