<svg xmlns="http://www.w3.org/2000/svg" width="32" height="32" viewBox="0 0 32 32"><defs><linearGradient id="okwmb" x1="20" x2="19.99" y1="38" y2="1.22" gradientUnits="userSpaceOnUse"><stop offset="0" stop-color="#3567df"/><stop offset=".46" stop-color="#2390ef"/><stop offset="1" stop-color="#09d3ff"/></linearGradient><clipPath id="okwma"><path d="M8.879 25.545l-8.25-8.367a2.26 2.26 0 0 1 0-3.155L5.227 9.36C5.354 6.724 6.69 3.758 9.65 2.48v.002C5.103 7.205 5.389 13.165 12.29 17.62c11.597 7.485.804 12.202-3.411 7.925zM22.313 5.657l8.249 8.366a2.261 2.261 0 0 1-.002 3.155l-4.595 4.662c-.128 2.638-1.465 5.603-4.423 6.881v-.002c4.547-4.723 4.26-10.683-2.641-15.137-11.597-7.486-.805-12.203 3.412-7.925z"/></clipPath></defs><g><g><g><path fill="#2664e3" d="M8.879 25.545l-8.25-8.367a2.26 2.26 0 0 1 0-3.155L5.227 9.36C5.354 6.724 6.69 3.758 9.65 2.48v.002C5.103 7.205 5.389 13.165 12.29 17.62c11.597 7.485.804 12.202-3.411 7.925zM22.313 5.657l8.249 8.366a2.261 2.261 0 0 1-.002 3.155l-4.595 4.662c-.128 2.638-1.465 5.603-4.423 6.881v-.002c4.547-4.723 4.26-10.683-2.641-15.137-11.597-7.486-.805-12.203 3.412-7.925z"/></g><g clip-path="url(#okwma)"><path fill="#ebf0f4" d="M22.239 1.22s-.627 8.366-5.699 13.917C11.186 20.997-.007 23.88-.007 23.88L21.722 38l18.28-23.358z"/><path fill="url(#okwmb)" d="M22.239 1.22s-.627 8.366-5.699 13.917C11.186 20.997-.007 23.88-.007 23.88L21.722 38l18.28-23.358z"/></g></g></g></svg>