<?xml version="1.0" encoding="utf-8"?>
<!-- Generator: Adobe Illustrator 16.0.4, SVG Export Plug-In . SVG Version: 6.00 Build 0)  -->
<!DOCTYPE svg PUBLIC "-//W3C//DTD SVG 1.1//EN" "http://www.w3.org/Graphics/SVG/1.1/DTD/svg11.dtd">
<svg version="1.1" id="Layer_1" xmlns="http://www.w3.org/2000/svg" xmlns:xlink="http://www.w3.org/1999/xlink" x="0px" y="0px"
	 width="35.762px" height="46px" viewBox="0 0 35.762 46" enable-background="new 0 0 35.762 46" xml:space="preserve">
<g>
	
		<linearGradient id="SVGID_1_" gradientUnits="userSpaceOnUse" x1="-218.8169" y1="22.4951" x2="-206.5847" y2="22.4951" gradientTransform="matrix(2.9194 0 0 -2.9194 638.8146 100.2238)">
		<stop  offset="0.0611" style="stop-color:#00348B"/>
		<stop  offset="0.1509" style="stop-color:#0F53AD"/>
		<stop  offset="0.261" style="stop-color:#1F73D0"/>
		<stop  offset="0.3649" style="stop-color:#2B89E9"/>
		<stop  offset="0.4591" style="stop-color:#3297F9"/>
		<stop  offset="0.535" style="stop-color:#349CFE"/>
		<stop  offset="0.6854" style="stop-color:#7ABFFF"/>
		<stop  offset="0.7981" style="stop-color:#A7D5FF"/>
		<stop  offset="0.8545" style="stop-color:#B9DEFF"/>
	</linearGradient>
	<polygon fill="url(#SVGID_1_)" points="35.762,33.036 31.695,31.991 31.695,31.991 17.829,23.105 17.621,23.209 17.621,28.02 
		17.829,28.227 27.734,34.5 17.829,40.877 4.066,31.991 0,34.396 0,34.5 17.829,46 31.695,37.114 31.695,37.114 35.762,34.604 
		35.762,34.604 35.658,34.5 35.762,34.5 	"/>
	
		<linearGradient id="SVGID_2_" gradientUnits="userSpaceOnUse" x1="-218.8169" y1="31.8232" x2="-206.5847" y2="31.8232" gradientTransform="matrix(2.9194 0 0 -2.9194 638.8146 100.2238)">
		<stop  offset="0.1051" style="stop-color:#00348B"/>
		<stop  offset="0.1715" style="stop-color:#0F53AD"/>
		<stop  offset="0.2528" style="stop-color:#1F73D0"/>
		<stop  offset="0.3296" style="stop-color:#2B89E9"/>
		<stop  offset="0.3992" style="stop-color:#3297F9"/>
		<stop  offset="0.4552" style="stop-color:#349CFE"/>
		<stop  offset="0.5423" style="stop-color:#49A6FE"/>
		<stop  offset="0.7212" style="stop-color:#7FC1FF"/>
		<stop  offset="0.8945" style="stop-color:#B9DEFF"/>
	</linearGradient>
	<polygon fill="url(#SVGID_2_)" points="35.762,11.5 17.829,0 0,11.5 0,11.918 3.962,14.637 3.962,14.114 17.829,5.123 
		31.695,14.114 31.695,14.428 32.113,14.532 35.762,12.336 	"/>
	<polygon fill="#BBDEFF" points="17.829,23.105 0,11.5 0,12.754 0,16.729 0,34.5 3.962,31.991 3.962,19.236 17.829,28.227 
		31.695,19.236 31.695,31.991 35.762,34.5 35.762,16.729 35.762,15.368 35.762,11.5 	"/>
</g>
</svg>
