<?xml version="1.0" encoding="utf-8"?>
<!-- Generator: Adobe Illustrator 16.0.4, SVG Export Plug-In . SVG Version: 6.00 Build 0)  -->
<!DOCTYPE svg PUBLIC "-//W3C//DTD SVG 1.1//EN" "http://www.w3.org/Graphics/SVG/1.1/DTD/svg11.dtd">
<svg version="1.1" id="Layer_1" xmlns="http://www.w3.org/2000/svg" xmlns:xlink="http://www.w3.org/1999/xlink" x="0px" y="0px"
	 width="913px" height="747px" viewBox="0 0 913 747" enable-background="new 0 0 913 747" xml:space="preserve">
<rect x="352.231" y="270.788" fill="#CCE0ED" width="389.062" height="476.212"/>
<g>
	<g>
		<path fill="#0074DD" d="M672.818,445.088c-9.337,3.112-18.675,6.225-24.899,6.225c9.337-6.225,15.562-15.562,18.675-24.9
			c-9.338,6.226-18.675,9.338-28.013,12.45c-9.337-9.337-21.787-15.562-34.237-15.562c-24.9,0-46.688,21.788-46.688,46.688
			c0,3.112,0,6.226,0,9.338c-37.35-3.112-71.588-18.675-93.375-46.688c-3.112,6.225-6.225,15.562-6.225,21.787
			c0,15.562,9.337,31.125,21.787,37.351c-6.225,0-15.562-3.113-21.787-6.226l0,0c0,21.788,15.562,40.463,37.35,43.575
			c-3.112,0-9.338,0-12.45,0s-6.225,0-9.337,0c6.225,18.675,21.787,31.125,43.574,31.125c-15.562,12.45-34.237,18.675-56.024,18.675
			c-3.112,0-6.226,0-12.45,0c21.787,12.45,43.575,21.788,71.588,21.788c84.037,0,130.725-68.476,130.725-130.726
			c0-3.112,0-3.112,0-6.225C657.256,460.65,666.594,454.425,672.818,445.088z"/>
	</g>
</g>
<g>
	<path fill="#019EFE" d="M492.294,0h-77.812c-90.263,0-146.288,59.138-146.288,149.4v68.475h-80.925
		c-6.225,3.112-12.45,6.225-12.45,15.562v99.6c0,6.226,6.225,12.45,12.45,12.45h80.925V597.6c0,6.226,6.225,12.45,12.45,12.45
		h102.713c6.225,0,12.45-6.225,12.45-12.45V345.487h93.375c6.225,0,12.449-6.225,12.449-12.45v-99.6c0-3.112,0-6.225-3.112-9.337
		c-3.112-3.113-6.225-3.113-9.337-3.113h-93.375V161.85c0-28.013,6.225-43.575,43.575-43.575h52.913
		c6.225,0,12.45-6.225,12.45-12.45V12.45C504.744,6.225,498.519,0,492.294,0z"/>
</g>
</svg>
