<svg xmlns="http://www.w3.org/2000/svg" width="26" height="46" viewBox="0 0 26 46"><g><g><path d="M13 34.709c-7.18 0-13-5.827-13-13.016v-8.677C0 5.828 5.82 0 13 0c7.179 0 12.999 5.828 12.999 13.016v8.677c0 7.189-5.82 13.016-13 13.016zm0-32.54c-5.984 0-10.834 4.856-10.834 10.847v8.677c0 5.99 4.85 10.846 10.833 10.846 5.983 0 10.834-4.856 10.834-10.846v-8.677c0-5.99-4.851-10.847-10.834-10.847zM13 46l-6.132-6.128a1.086 1.086 0 0 1 .118-1.53 1.082 1.082 0 0 1 1.41 0l4.603 4.6 4.593-4.6a1.082 1.082 0 0 1 1.528.119 1.085 1.085 0 0 1 0 1.41zm0-31.9a1.084 1.084 0 0 1-1.084-1.084V6.508a1.084 1.084 0 1 1 2.166 0v6.508c0 .599-.484 1.084-1.083 1.084z"/></g></g></svg>