<?xml version="1.0" encoding="utf-8"?>
<!-- Generator: Adobe Illustrator 16.0.4, SVG Export Plug-In . SVG Version: 6.00 Build 0)  -->
<!DOCTYPE svg PUBLIC "-//W3C//DTD SVG 1.1//EN" "http://www.w3.org/Graphics/SVG/1.1/DTD/svg11.dtd">
<svg version="1.1" id="Layer_1" xmlns="http://www.w3.org/2000/svg" xmlns:xlink="http://www.w3.org/1999/xlink" x="0px" y="0px"
	 width="913px" height="747px" viewBox="0 0 913 747" enable-background="new 0 0 913 747" xml:space="preserve">
<g>
	<path fill="#019EFE" d="M817.896,630.281H95.104V147.152c0-26.629,22.825-49.455,49.454-49.455h623.883
		c26.63,0,49.454,22.825,49.454,49.455V630.281L817.896,630.281z"/>
	<path fill="#CCE0ED" d="M890.175,732.994H22.825C11.413,732.994,0,721.581,0,710.169l0,0c0-11.413,11.413-22.825,22.825-22.825
		h867.35c11.413,0,22.825,11.412,22.825,22.825l0,0C913,721.581,901.588,732.994,890.175,732.994z"/>
	<path fill="#CCE0ED" d="M859.742,413.443H711.379c-26.629,0-49.454-22.824-49.454-49.454V63.46
		c0-26.629,22.825-49.454,49.454-49.454h148.363c26.629,0,49.454,22.825,49.454,49.454v296.725
		C909.196,386.814,886.371,413.443,859.742,413.443z"/>
	<path fill="#0074DD" d="M855.938,86.285h-30.434c-11.412,0-22.824-11.412-22.824-22.825l0,0c0-11.413,11.412-22.825,22.824-22.825
		h30.434c11.412,0,22.825,11.413,22.825,22.825l0,0C878.763,78.677,871.154,86.285,855.938,86.285z"/>
</g>
</svg>
