<svg xmlns="http://www.w3.org/2000/svg" width="24" height="24" viewBox="0 0 24 24"><defs><clipPath id="ckh5a"><path fill="#fff" d="M5 0h14a5 5 0 0 1 5 5v14a5 5 0 0 1-5 5H5a5 5 0 0 1-5-5V5a5 5 0 0 1 5-5z"/></clipPath></defs><g><g><g><path fill="#" d="M5 0h14a5 5 0 0 1 5 5v14a5 5 0 0 1-5 5H5a5 5 0 0 1-5-5V5a5 5 0 0 1 5-5z"/><path fill="none" stroke="silver" stroke-linecap="round" stroke-linejoin="round" stroke-miterlimit="50" stroke-width="4" d="M5 0h14a5 5 0 0 1 5 5v14a5 5 0 0 1-5 5H5a5 5 0 0 1-5-5V5a5 5 0 0 1 5-5z" clip-path="url(&quot;#ckh5a&quot;)"/></g><g><path fill="silver" d="M5 16h10v2H5z"/></g><g><path fill="silver" d="M16 16h3v2h-3z"/></g></g></g></svg>