<svg xmlns="http://www.w3.org/2000/svg" width="14" height="14" viewBox="0 0 14 14"><g><g><path fill="#fff" d="M13.952 7.815a.39.39 0 0 1-.41.343l-.086-.003c-.618 0-1.194.382-1.431.95a1.55 1.55 0 0 0 .392 1.746c.153.138.17.371.042.531a6.97 6.97 0 0 1-1.133 1.12.39.39 0 0 1-.528-.044c-.417-.457-1.158-.63-1.734-.394a1.555 1.555 0 0 0-.958 1.493.39.39 0 0 1-.346.4 6.999 6.999 0 0 1-1.575-.004.389.389 0 0 1-.344-.409 1.552 1.552 0 0 0-.947-1.519c-.577-.242-1.326-.07-1.745.393a.39.39 0 0 1-.533.042 6.954 6.954 0 0 1-1.107-1.12.388.388 0 0 1 .042-.528 1.557 1.557 0 0 0 .392-1.731 1.536 1.536 0 0 0-1.44-.96c-.201 0-.438-.146-.46-.344a7.011 7.011 0 0 1 .004-1.591.38.38 0 0 1 .403-.344c.685 0 1.282-.371 1.524-.946a1.55 1.55 0 0 0-.392-1.747.39.39 0 0 1-.041-.532c.331-.413.713-.79 1.133-1.12a.39.39 0 0 1 .528.044c.416.459 1.16.63 1.732.395.597-.244.982-.844.959-1.493a.39.39 0 0 1 .347-.4 6.984 6.984 0 0 1 1.574.004.388.388 0 0 1 .344.409 1.555 1.555 0 0 0 .946 1.52c.579.24 1.328.07 1.745-.393a.39.39 0 0 1 .532-.043c.408.327.781.703 1.11 1.12a.39.39 0 0 1-.043.528 1.559 1.559 0 0 0-.391 1.73c.238.583.808.96 1.449.96.198 0 .428.148.45.345.06.53.059 1.065-.004 1.592zm-4.606-.8A2.337 2.337 0 0 0 7.01 4.68a2.337 2.337 0 0 0-2.335 2.335A2.337 2.337 0 0 0 7.01 9.35a2.337 2.337 0 0 0 2.335-2.335z"/></g></g></svg>