<svg xmlns="http://www.w3.org/2000/svg" width="24" height="24" viewBox="0 0 24 24"><g><g><path fill="#30302b" d="M17.002 12A5.009 5.009 0 0 1 12 17.003 5.009 5.009 0 0 1 6.997 12 5.009 5.009 0 0 1 12 6.997 5.009 5.009 0 0 1 17.002 12zm-1.05 0A3.956 3.956 0 0 0 12 8.049a3.955 3.955 0 0 0-3.951 3.95 3.956 3.956 0 0 0 3.95 3.952A3.956 3.956 0 0 0 15.952 12zm5.476 2.783a9.803 9.803 0 0 1-.793 1.914l.854 2.783-2.007 2.009-2.785-.854a9.841 9.841 0 0 1-1.914.793L13.42 24h-2.84l-1.363-2.572a9.895 9.895 0 0 1-1.915-.793l-2.784.854L2.51 19.48l.855-2.782a9.795 9.795 0 0 1-.793-1.915L0 13.42V10.58l2.572-1.362a9.781 9.781 0 0 1 .793-1.915L2.51 4.52l2.01-2.01 2.782.855a9.812 9.812 0 0 1 1.914-.793L10.58 0h2.841l1.363 2.572a9.814 9.814 0 0 1 1.914.793l2.783-.854 2.01 2.01-.855 2.782a9.74 9.74 0 0 1 .793 1.915L24 10.58v2.841zm1.166-2.208v-1.15l-2.365-1.253-.078-.3a8.385 8.385 0 0 0-.884-2.131l-.156-.267.786-2.56-.812-.812-2.558.787-.268-.156a8.32 8.32 0 0 0-2.133-.884l-.3-.078-1.252-2.365h-1.15l-1.252 2.365-.3.078a8.32 8.32 0 0 0-2.132.884l-.266.156-2.56-.787-.811.813.786 2.56-.156.266a8.374 8.374 0 0 0-.884 2.131l-.078.3-2.365 1.253v1.15l2.365 1.252.078.3c.194.747.491 1.465.883 2.131l.157.267-.786 2.56.81.812 2.561-.786.266.157c.67.391 1.387.69 2.133.883l.3.078 1.252 2.365h1.149l1.252-2.365.3-.078a8.374 8.374 0 0 0 2.133-.883l.268-.157 2.558.786.812-.813-.786-2.559.156-.266a8.37 8.37 0 0 0 .884-2.132l.078-.3z"/></g></g></svg>