<?xml version="1.0" encoding="utf-8"?>
<!-- Generator: Adobe Illustrator 16.0.4, SVG Export Plug-In . SVG Version: 6.00 Build 0)  -->
<!DOCTYPE svg PUBLIC "-//W3C//DTD SVG 1.1//EN" "http://www.w3.org/Graphics/SVG/1.1/DTD/svg11.dtd">
<svg version="1.1" id="Layer_1" xmlns="http://www.w3.org/2000/svg" xmlns:xlink="http://www.w3.org/1999/xlink" x="0px" y="0px"
	 width="913px" height="747px" viewBox="0 0 913 747" enable-background="new 0 0 913 747" xml:space="preserve">
<path fill="#0074DD" d="M483.664,0c-10.187,0-16.978,0-27.164,0C269.75,0,116.955,152.795,116.955,339.546
	c0,186.749,152.795,339.545,339.545,339.545c10.187,0,16.978,0,27.164,0V0z"/>
<path fill="#019EFE" d="M456.5,747L456.5,747C232.4,747,49.045,563.646,49.045,339.546l0,0h814.909l0,0
	C863.954,563.646,680.6,747,456.5,747z"/>
<path fill="#CCE0ED" d="M456.5,135.818"/>
<circle fill="#CCE0ED" cx="456.5" cy="339.545" r="203.727"/>
<circle fill="#FFFFFF" cx="456.5" cy="339.545" r="98.468"/>
</svg>
