<svg xmlns="http://www.w3.org/2000/svg" width="24" height="20" viewBox="0 0 24 20"><g><g><path fill="#272a36" d="M23.625 4.907c-.366.81-.99 1.387-1.714 1.591-.008.02-.018.037-.027.056a53.15 53.15 0 0 1-1.56 2.632 5.03 5.03 0 0 1-.097 1.188c-.31 1.493-1.485 2.792-2.993 3.313-.59.784-1.151 1.49-1.673 2.1-1.946 2.274-2.63 2.404-2.854 2.448a.87.87 0 0 1-.68-.135c-.595-.425-.352-1.325-.259-1.663.15-.55.434-1.27.847-2.137.195-.41.419-.852.664-1.315a2.027 2.027 0 0 0-.625-.103c-.724 0-1.222.44-1.337 1.173-.05.32-.018.638.015.976.032.326.065.664.016 1.001a5 5 0 0 1-.576 1.692C9.984 19.171 8.663 20 7.153 20a4.684 4.684 0 0 1-1.842-.395C2.818 18.539.974 16.056.252 12.792a10.238 10.238 0 0 1-.139-.744C-.33 9.079.535 6.036 2.49 3.698 4.453 1.348 7.263 0 10.2 0c.116 0 .233.004.35.008 2.629.094 5.186 1.273 7.016 3.235.393.419.763.889 1.103 1.396l.021-.026c-.187-.778.186-1.597 1.002-2.199.578-.425 1.11-.62 1.628-.81.64-.233 1.193-.436 1.614-1.042a.327.327 0 0 1 .31-.141.338.338 0 0 1 .272.214c.606 1.574.644 3.092.11 4.273zm-8.087.217a1.457 1.457 0 0 0-.628-.912 1.391 1.391 0 0 0-.756-.225c-.493 0-.942.256-1.204.683-.203.33-.268.721-.183 1.1.083.381.306.705.628.913.227.147.488.224.756.224.492 0 .942-.255 1.203-.681.203-.33.268-.722.184-1.102zm-1.603 9.299c-.447.899-.77 1.657-.937 2.211.436-.362 1.001-.947 1.648-1.703 1.158-1.354 2.513-3.187 3.817-5.158.792-1.2 1.448-2.261 2.059-3.331a2.938 2.938 0 0 1-.733-.386c-.141-.1-.272-.207-.39-.315a65.76 65.76 0 0 0-2.2 3.129c-1.303 1.974-2.464 3.945-3.264 5.553zM5.788 8.178c.417-.68.218-1.584-.446-2.012a1.383 1.383 0 0 0-.756-.224c-.491 0-.942.254-1.204.68a1.488 1.488 0 0 0 .445 2.015 1.4 1.4 0 0 0 1.96-.459zM2.91 13.177c.083.38.307.703.628.91.227.148.488.225.757.225.492 0 .941-.255 1.202-.682.203-.33.27-.72.184-1.1a1.45 1.45 0 0 0-.629-.913 1.39 1.39 0 0 0-.755-.224c-.493 0-.943.254-1.205.682-.202.33-.267.72-.182 1.102zm4.55-8.67c.085.38.31.704.63.912a1.404 1.404 0 0 0 1.96-.458 1.484 1.484 0 0 0-.445-2.012 1.388 1.388 0 0 0-.757-.225c-.49 0-.942.256-1.203.682-.203.33-.268.72-.185 1.101z"/></g></g></svg>