<svg xmlns="http://www.w3.org/2000/svg" width="24" height="24" viewBox="0 0 24 24"><g><g><path fill="#444440" d="M15.549 15.056c0 1.659-1.22 3.043-2.83 3.358v4.906a.682.682 0 0 1-.693.675.682.682 0 0 1-.695-.675v-4.906c-1.61-.315-2.829-1.7-2.829-3.358 0-1.66 1.22-3.044 2.83-3.358V.674c0-.374.308-.674.694-.674.385 0 .694.3.694.674v11.024c1.615.314 2.829 1.703 2.829 3.358zm-1.389 0c0-1.145-.957-2.074-2.134-2.074-1.178 0-2.135.93-2.135 2.074 0 1.144.957 2.073 2.135 2.073 1.177 0 2.134-.929 2.134-2.073zM7.047 9.394c0 1.659-1.22 3.043-2.83 3.358V23.32c0 .375-.308.675-.694.675a.682.682 0 0 1-.694-.675V12.757C1.219 12.442 0 11.057 0 9.399c0-1.66 1.22-3.043 2.829-3.358V.674C2.829.3 3.137 0 3.523 0c.386 0 .695.3.695.674v5.367c1.61.315 2.829 1.694 2.829 3.353zm-1.39.005c0-1.144-.955-2.074-2.134-2.074-1.178 0-2.135.93-2.135 2.074 0 1.145.957 2.074 2.135 2.074 1.173 0 2.135-.93 2.135-2.074zM24 9.394c0 1.659-1.219 3.043-2.829 3.358v10.574a.682.682 0 0 1-.694.674.682.682 0 0 1-.695-.674v-10.57c-1.61-.314-2.828-1.698-2.828-3.357 0-1.66 1.219-3.043 2.828-3.358V.674c0-.374.309-.674.695-.674.386 0 .694.3.694.674v5.367c1.615.315 2.83 1.694 2.83 3.353zm-1.389.005c0-1.144-.956-2.074-2.134-2.074s-2.135.93-2.135 2.074c0 1.145.957 2.074 2.135 2.074s2.134-.93 2.134-2.074z"/></g></g></svg>