<svg xmlns="http://www.w3.org/2000/svg" width="12" height="14" viewBox="0 0 12 14"><g><g><path fill="#fff" d="M12 1.649c0 .182-.146.33-.327.33h-.604l-.413 10.838A1.22 1.22 0 0 1 9.438 14H2.562a1.22 1.22 0 0 1-1.218-1.183L.93 1.978H.326A.328.328 0 0 1 0 1.648c0-.181.146-.33.326-.33h3.728V.656c0-.361.291-.655.648-.655h2.595c.358 0 .648.294.648.655v.664h3.728c.18 0 .327.148.327.33zm-7.293-.33h2.585v-.66H4.707zm5.708.66h-8.83l.411 10.813c.012.308.26.549.566.549h6.876a.567.567 0 0 0 .566-.55zm-6.3 8.362a.328.328 0 0 1-.32.336h-.007a.328.328 0 0 1-.326-.322l-.103-5.377a.328.328 0 0 1 .32-.336h.007c.177 0 .323.143.326.323zm2.211-5.37v5.377c0 .182-.146.33-.326.33a.328.328 0 0 1-.327-.33V4.97c0-.182.146-.33.327-.33.18 0 .326.148.326.33zm2.314.007l-.102 5.377a.328.328 0 0 1-.327.322h-.006a.328.328 0 0 1-.32-.336l.103-5.376a.327.327 0 0 1 .332-.323c.18.003.324.154.32.336z"/></g></g></svg>