<svg xmlns="http://www.w3.org/2000/svg" width="35" height="40" viewBox="0 0 35 40"><g><g><path d="M35 4.71c0 .52-.426.941-.952.941h-1.765L31.08 36.62c-.074 1.895-1.634 3.38-3.553 3.38H7.473c-1.92 0-3.48-1.485-3.554-3.38L2.716 5.65H.952a.947.947 0 0 1-.953-.941c0-.52.427-.941.953-.941h10.873V1.87C11.825.84 12.673 0 13.715 0h7.57c1.041 0 1.889.84 1.889 1.871V3.77h10.874c.526 0 .952.421.952.94zm-21.271-.941h7.54V1.882h-7.54zM30.377 5.65H4.622l1.2 30.897c.034.88.759 1.57 1.65 1.57h20.055c.891 0 1.616-.69 1.65-1.57z"/></g><g><path fill="#00a0ff" d="M12 29.547c.011.52-.407.95-.933.96h-.018a.947.947 0 0 1-.952-.924l-.299-15.362a.946.946 0 0 1 .934-.959h.019c.517 0 .94.41.951.923zm6.451-15.344v15.362c0 .52-.426.942-.952.942a.947.947 0 0 1-.952-.942V14.203c0-.52.427-.94.952-.94.526 0 .952.42.952.94zm6.75.018l-.3 15.362a.947.947 0 0 1-.95.924h-.02a.946.946 0 0 1-.933-.96l.299-15.362a.948.948 0 0 1 .97-.923c.526.01.944.44.934.96z"/></g></g></svg>