<svg xmlns="http://www.w3.org/2000/svg" width="24" height="23" viewBox="0 0 24 23"><defs><clipPath id="om1ua"><path fill="#fff" d="M3 0h5a3 3 0 0 1 3 3v12a3 3 0 0 1-3 3H3a3 3 0 0 1-3-3V3a3 3 0 0 1 3-3z"/></clipPath><clipPath id="om1ub"><path fill="#fff" d="M16 0h5a3 3 0 0 1 3 3v12a3 3 0 0 1-3 3h-5a3 3 0 0 1-3-3V3a3 3 0 0 1 3-3z"/></clipPath></defs><g><g><path fill="#30302b" d="M3 0h5a3 3 0 0 1 3 3v12a3 3 0 0 1-3 3H3a3 3 0 0 1-3-3V3a3 3 0 0 1 3-3z"/><path fill="none" stroke="silver" stroke-linecap="round" stroke-linejoin="round" stroke-miterlimit="50" stroke-width="4" d="M3 0h5a3 3 0 0 1 3 3v12a3 3 0 0 1-3 3H3a3 3 0 0 1-3-3V3a3 3 0 0 1 3-3z" clip-path="url(&quot;#om1ua&quot;)"/></g><g><path fill="#30302b" d="M16 0h5a3 3 0 0 1 3 3v12a3 3 0 0 1-3 3h-5a3 3 0 0 1-3-3V3a3 3 0 0 1 3-3z"/><path fill="none" stroke="silver" stroke-linecap="round" stroke-linejoin="round" stroke-miterlimit="50" stroke-width="4" d="M16 0h5a3 3 0 0 1 3 3v12a3 3 0 0 1-3 3h-5a3 3 0 0 1-3-3V3a3 3 0 0 1 3-3z" clip-path="url(&quot;#om1ub&quot;)"/></g><g><path fill="silver" d="M1 21h8v2H1z"/></g><g><path fill="silver" d="M15 21h8v2h-8z"/></g></g></svg>